<svg xmlns="http://www.w3.org/2000/svg" width="360" height="200" viewBox="0 0 360 200" preserveAspectRatio="xMidYMid slice">
  <!-- Placeholder: a win — racks installed, bikes parked. -->
  <defs>
    <linearGradient id="wsky" x1="0" y1="0" x2="0" y2="1">
      <stop offset="0" stop-color="#d07a5e"/>
      <stop offset="0.7" stop-color="#f0a368"/>
      <stop offset="1" stop-color="#f8c07e"/>
    </linearGradient>
    <linearGradient id="wgnd" x1="0" y1="0" x2="0" y2="1">
      <stop offset="0" stop-color="#2a5a54"/>
      <stop offset="1" stop-color="#11302f"/>
    </linearGradient>
  </defs>
  <rect width="360" height="128" fill="url(#wsky)"/>
  <circle cx="70" cy="104" r="30" fill="#fff3d6" opacity="0.75"/>
  <!-- storefront strip behind -->
  <rect x="190" y="62" width="170" height="66" fill="#3a2b44"/>
  <g fill="#ffd9a3" opacity="0.8">
    <rect x="202" y="76" width="26" height="36"/>
    <rect x="240" y="76" width="26" height="36"/>
    <rect x="278" y="76" width="26" height="36"/>
    <rect x="316" y="76" width="26" height="36"/>
  </g>
  <rect y="128" width="360" height="72" fill="url(#wgnd)"/>
  <!-- racks with parked bikes -->
  <g stroke="#0a2022" stroke-linecap="round" fill="none">
    <circle cx="70" cy="152" r="14" stroke-width="6"/>
    <line x1="70" y1="166" x2="70" y2="190" stroke-width="6"/>
    <circle cx="170" cy="152" r="14" stroke-width="6"/>
    <line x1="170" y1="166" x2="170" y2="190" stroke-width="6"/>
    <circle cx="270" cy="152" r="14" stroke-width="6"/>
    <line x1="270" y1="166" x2="270" y2="190" stroke-width="6"/>
  </g>
  <!-- rim light -->
  <g stroke="#ffc987" stroke-width="2.5" fill="none" opacity="0.8" stroke-linecap="round">
    <path d="M70,138 A14,14 0 0 1 84,152"/>
    <path d="M170,138 A14,14 0 0 1 184,152"/>
    <path d="M270,138 A14,14 0 0 1 284,152"/>
  </g>
  <g stroke="#0a2022" stroke-width="3.5" fill="none" stroke-linecap="round">
    <circle cx="100" cy="172" r="13"/>
    <circle cx="140" cy="172" r="13"/>
    <path d="M100,172 L115,148 L132,150 L140,172 M115,148 L121,170 L100,172"/>
    <circle cx="200" cy="172" r="13"/>
    <circle cx="240" cy="172" r="13"/>
    <path d="M200,172 L215,148 L232,150 L240,172 M215,148 L221,170 L200,172"/>
  </g>
</svg>
